<svg id="Layer_1" data-name="Layer 1" xmlns="http://www.w3.org/2000/svg" viewBox="0 0 73 26.27"><defs><style>.cls-1{fill:#00a79d;}.cls-2{fill:#2bb673;}</style></defs><title>ehealth</title><path class="cls-1" d="M173.79,361.23H148.72v-6.29h2V341.25h-2.08V335h25.11v8.4h-6.9v-2.11h-6v4h5.2v5.34h-5.2v4.31h6v-2.11h6.9Z" transform="translate(-148.68 -334.96)"/><path class="cls-2" d="M179.15,353h-4.29v-1.95h.61V346.8h-.62v-1.95h4.3v1.95h-.52V348h1.88V346.8H180v-1.95h4.29v1.95h-.61v4.25h.61V353H180v-1.95h.52v-1.34h-1.88v1.34h.52Z" transform="translate(-148.68 -334.96)"/><path class="cls-2" d="M190.1,351.2l2.44.3a2.4,2.4,0,0,1-.46.68,2.86,2.86,0,0,1-.72.53,4.26,4.26,0,0,1-2,.45,4.64,4.64,0,0,1-3-.82,2.65,2.65,0,0,1-1-2.15,2.77,2.77,0,0,1,1-2.17,3.86,3.86,0,0,1,2.66-.87,4,4,0,0,1,2.62.82,3.19,3.19,0,0,1,1.06,2.48h-4.48c0,.92.36,1.38,1,1.38A.91.91,0,0,0,190.1,351.2Zm-1.87-1.49h1.66c0-.12,0-.18,0-.2a1.23,1.23,0,0,0-.23-.76.77.77,0,0,0-.63-.3.71.71,0,0,0-.61.32,1.54,1.54,0,0,0-.21.82C188.22,349.64,188.23,349.68,188.23,349.71Z" transform="translate(-148.68 -334.96)"/><path class="cls-2" d="M196,348.9l-2.31-.23a2.26,2.26,0,0,1,1.23-1.18,6.87,6.87,0,0,1,2.48-.34c.4,0,.76,0,1.08,0a6.31,6.31,0,0,1,.85.11,2.65,2.65,0,0,1,1.15.45,1.8,1.8,0,0,1,.53.67,3.28,3.28,0,0,1,.15,1.15v1.64h.72V353h-3.67v-.39a3.71,3.71,0,0,1-2,.49,2.71,2.71,0,0,1-1.81-.52,1.59,1.59,0,0,1-.61-1.25,1.53,1.53,0,0,1,.75-1.31,3.41,3.41,0,0,1,2-.51,4.42,4.42,0,0,1,1.75.29v-.17a2.17,2.17,0,0,0-.08-.74.73.73,0,0,0-.36-.38,1.45,1.45,0,0,0-.68-.15A1.26,1.26,0,0,0,196,348.9Zm2.21,2.65v-1a1.73,1.73,0,0,0-.83-.21.9.9,0,0,0-.62.21.73.73,0,0,0-.23.55.71.71,0,0,0,.24.56.77.77,0,0,0,.55.22A1.29,1.29,0,0,0,198.19,351.55Z" transform="translate(-148.68 -334.96)"/><path class="cls-2" d="M206.67,353H202.6v-1.79h.6v-4.57h-.6v-1.79h3.55v6.36h.52Z" transform="translate(-148.68 -334.96)"/><path class="cls-2" d="M212.12,350.92v1.75a2.88,2.88,0,0,1-.83.34,4.41,4.41,0,0,1-1.11.15,2.75,2.75,0,0,1-1.13-.21,1.64,1.64,0,0,1-.73-.6,2.12,2.12,0,0,1-.2-.4,1.56,1.56,0,0,1-.1-.4c0-.26,0-.75,0-1.49v-1h-.73v-1.78H208v-.88l3-1.4v2.28h1.19v1.78h-1.19v1.1a1.65,1.65,0,0,0,.1.72c.06.13.19.19.4.19A1.64,1.64,0,0,0,212.12,350.92Z" transform="translate(-148.68 -334.96)"/><path class="cls-2" d="M217.32,353h-4.49v-1.79h.75v-4.57h-.75v-1.79h3.69V348a4.15,4.15,0,0,1,2.32-.79,2.15,2.15,0,0,1,1.59.58,2.89,2.89,0,0,1,.58,2.07v1.35h.67V353h-3.61v-2.33a4.23,4.23,0,0,0-.13-1.33.53.53,0,0,0-.54-.27,1.63,1.63,0,0,0-.88.3v1.84h.8Z" transform="translate(-148.68 -334.96)"/></svg>