<svg width="160" height="178" viewBox="0 0 160 178" fill="none" xmlns="http://www.w3.org/2000/svg">
<path d="M43.3333 117.856C55.5553 126.745 67.778 133.856 80 133.856C92.222 133.856 104.445 126.745 116.667 117.856C106.592 114.789 101.481 110.212 101.333 104.123C101.333 103.037 101.341 101.496 101.349 98.602C101.349 98.1425 101.35 97.6718 101.352 97.19C101.372 89.43 101.405 79.19 101.451 68.79C111.005 56.4054 107.495 41.886 104.501 42.248C100.831 42.6947 69.0287 12.516 62.9287 10.9687C56.8287 9.42137 41.3333 14.4167 38.6667 28.3334C36 42.25 34.8853 77.3287 45 91.3334C47.8782 95.3187 52.4116 96.8776 58.6 96.01C58.6087 98.9227 58.626 100.557 58.6667 103.856C58.5873 110.222 53.4767 114.793 43.3333 117.856Z" fill="url(#paint0_linear_102_406)"/>
<path d="M58.6667 96C73.3334 94.3333 82.6668 88 82.6668 88C82.6668 88 72.0001 101.333 58.6667 104V96Z" fill="#FC9F6A"/>
<path d="M106.333 69C110.927 57.9534 129.333 35.4554 113.467 21.4554C108.133 -4.54464 78.6668 -1.66664 59.0001 4.33336C45.7821 8.36603 35.8001 16.3334 33.6667 10.3334C20.3334 21.4554 27.0107 32.3334 35.8001 35.4554C43.7774 38.2887 57.2668 41.122 80.2041 38.4554C84.3014 37.9787 83.4434 50.5274 85.6328 51.884C88.9174 53.9194 91.4668 41.122 100.472 44.9647C109.477 48.8074 104.133 66.6247 94.4668 66.6247C91.1334 66.6247 89.4668 75.7894 98.4668 80.1227C105 83.3334 103.349 76.178 106.333 69Z" fill="url(#paint1_linear_102_406)"/>
<path d="M150 138.205C156.347 151.11 160 180.872 160 180.872H0C0 180.872 3.65467 151.107 10 138.205C16.3453 125.304 53.4 113.338 53.4 113.338C73.8753 121.333 86.4053 121.333 106.581 113.333C106.581 113.333 143.653 125.301 150 138.205Z" fill="url(#paint2_linear_102_406)"/>
<path d="M84.6667 118L88 179.333H72L75.3333 118C75.3333 118 78.4447 114.667 80 114.667C81.5553 114.667 84.6667 118 84.6667 118Z" fill="url(#paint3_linear_102_406)"/>
<path d="M85.426 130.461L74.9426 124.404L75.3333 118C77.4075 115.778 78.9631 114.667 80 114.667C81.0368 114.667 82.5924 115.778 84.6666 118L85.4266 130.461H85.426Z" fill="#645050"/>
<path d="M80.0001 114.661L73.3334 126.667L52.6667 114L58.6667 105.333L80.0001 113.214L101.333 105.333L107.333 114L86.6668 126.667L80.0001 114.661Z" fill="white"/>
<defs>
<linearGradient id="paint0_linear_102_406" x1="76.7478" y1="10.6981" x2="76.7478" y2="133.856" gradientUnits="userSpaceOnUse">
<stop stop-color="#F7B186"/>
<stop offset="1" stop-color="#FFC299"/>
</linearGradient>
<linearGradient id="paint1_linear_102_406" x1="72.9603" y1="0.258606" x2="72.9603" y2="80.9122" gradientUnits="userSpaceOnUse">
<stop stop-color="#1D0024"/>
<stop offset="1" stop-color="#100014"/>
</linearGradient>
<linearGradient id="paint2_linear_102_406" x1="80" y1="113.333" x2="80" y2="180.872" gradientUnits="userSpaceOnUse">
<stop stop-color="#1D0024"/>
<stop offset="1" stop-color="#100014"/>
</linearGradient>
<linearGradient id="paint3_linear_102_406" x1="80" y1="114.667" x2="80" y2="179.333" gradientUnits="userSpaceOnUse">
<stop stop-color="#806A6A"/>
<stop offset="1" stop-color="#665654"/>
</linearGradient>
</defs>
</svg>
